<?xml version="1.0" encoding="UTF-8"?>
<svg id="Ebene_1" xmlns="http://www.w3.org/2000/svg" version="1.1" viewBox="0 0 16 16">
  <!-- Generator: Adobe Illustrator 29.8.1, SVG Export Plug-In . SVG Version: 2.1.1 Build 2)  -->
  <path d="M7.9.2c.5,0,.9.3,1.1.7l6.7,12.5c.2.4.2.9,0,1.2s-.6.6-1.1.6H1.2c-.4,0-.8-.2-1.1-.6s-.2-.8,0-1.2L6.8.9c.2-.4.6-.7,1.1-.7ZM7.9,5.5c-.4,0-.7.3-.7.7v3.5c0,.4.3.7.7.7s.7-.3.7-.7v-3.5c0-.4-.3-.7-.7-.7ZM8.8,12.2c0-.5-.3-.9-.8-.9-.5,0-.9.3-.9.8,0,0,0,0,0,.1,0,.5.3.9.8.9s.9-.3.9-.8c0,0,0,0,0-.1Z"/>
</svg>