<?xml version="1.0" encoding="UTF-8"?>
<svg id="Ebene_1" xmlns="http://www.w3.org/2000/svg" version="1.1" viewBox="0 0 16 16">
  <!-- Generator: Adobe Illustrator 29.8.1, SVG Export Plug-In . SVG Version: 2.1.1 Build 2)  -->
  <path d="M4.1,1.4c.3.2.4.7.2,1l-1.7,2.5c-.1.2-.3.3-.5.3s-.4,0-.6-.2L.2,3.8c-.3-.3-.3-.8,0-1.1.3-.3.8-.3,1.1,0l.6.6,1.2-1.8c.2-.3.7-.4,1-.2h0ZM4.1,6.4c.3.2.4.7.2,1l-1.7,2.5c-.1.2-.3.3-.5.3s-.4,0-.6-.2l-1.2-1.2c-.3-.3-.3-.8,0-1.1s.8-.3,1.1,0l.6.6,1.2-1.8c.2-.3.7-.4,1-.2h0ZM7,3.3c0-.6.4-1,1-1h7c.6,0,1,.4,1,1s-.4,1-1,1h-7c-.6,0-1-.4-1-1ZM7,8.3c0-.6.4-1,1-1h7c.6,0,1,.4,1,1s-.4,1-1,1h-7c-.6,0-1-.4-1-1ZM5,13.3c0-.6.4-1,1-1h9c.6,0,1,.4,1,1s-.4,1-1,1H6c-.6,0-1-.4-1-1ZM2,12c.7,0,1.2.6,1.2,1.2s-.6,1.2-1.2,1.2-1.2-.6-1.2-1.2.6-1.2,1.2-1.2Z"/>
</svg>