<?xml version="1.0" encoding="UTF-8"?>
<svg id="Ebene_1" xmlns="http://www.w3.org/2000/svg" version="1.1" viewBox="0 0 16 16">
  <!-- Generator: Adobe Illustrator 29.8.1, SVG Export Plug-In . SVG Version: 2.1.1 Build 2)  -->
  <path d="M3.8,1.9C3.8.8,4.6,0,5.6,0h4.4c.5,0,1,.2,1.3.6l3.1,3.1c.4.4.6.8.6,1.3v8.2c0,1-.8,1.9-1.9,1.9h-5.6v-2.1c.9-.9,1.4-2.2,1.4-3.6,0-2.9-2.3-5.2-5.2-5.2h0V1.9ZM9.9,1.7v2.8c0,.4.3.7.7.7h2.8l-3.5-3.5ZM7.5,9.4c0,1.2-.5,2.2-1.4,2.9v3.1c0,.3-.2.6-.6.6s-.2,0-.3,0l-1.5-.9-1.5.9c0,0-.2,0-.3,0-.3,0-.6-.2-.6-.6v-3.1c-.9-.7-1.4-1.8-1.4-2.9,0-2.1,1.7-3.8,3.8-3.8s3.8,1.7,3.8,3.8ZM3.8,10.8c.8,0,1.4-.6,1.4-1.4s-.6-1.4-1.4-1.4-1.4.6-1.4,1.4.6,1.4,1.4,1.4Z"/>
</svg>